<?xml version="1.0" encoding="UTF-8" standalone="no"?>
<svg
   version="1.1"
   width="3192"
   height="3192"
   viewBox="0 0 3192 3192"
   id="svg3"
   sodipodi:docname="logo"
   inkscape:version="1.3.1 (9b9bdc1480, 2023-11-25, custom)"
   xmlns:inkscape="http://www.inkscape.org/namespaces/inkscape"
   xmlns:sodipodi="http://sodipodi.sourceforge.net/DTD/sodipodi-0.dtd"
   xmlns="http://www.w3.org/2000/svg"
   xmlns:svg="http://www.w3.org/2000/svg">
  <defs
     id="defs3">
    <linearGradient
       id="swatch4"
       inkscape:swatch="solid">
      <stop
         style="stop-color:#ffffff;stop-opacity:1;"
         offset="0"
         id="stop4" />
    </linearGradient>
    <inkscape:path-effect
       effect="fillet_chamfer"
       id="path-effect2"
       is_visible="true"
       lpeversion="1"
       nodesatellites_param="F,0,0,1,0,0,0,1 @ F,0,0,1,0,0,0,1 @ F,0,0,1,0,0,0,1 @ F,0,0,1,0,0,0,1 | F,0,0,1,0,0,0,1 @ F,0,0,1,0,0,0,1 @ F,0,0,1,0,0,0,1 @ F,0,0,1,0,0,0,1"
       radius="0"
       unit="px"
       method="auto"
       mode="F"
       chamfer_steps="1"
       flexible="false"
       use_knot_distance="true"
       apply_no_radius="true"
       apply_with_radius="true"
       only_selected="false"
       hide_knots="false" />
    <inkscape:path-effect
       effect="fillet_chamfer"
       id="path-effect1"
       is_visible="true"
       lpeversion="1"
       nodesatellites_param="F,0,0,1,0,0,0,1 @ F,0,0,1,0,0,0,1 @ F,0,0,1,0,0,0,1 @ F,0,0,1,0,0,0,1 | F,0,0,1,0,0,0,1 @ F,0,0,1,0,0,0,1 @ F,0,0,1,0,0,0,1 @ F,0,0,1,0,0,0,1"
       radius="0"
       unit="px"
       method="auto"
       mode="F"
       chamfer_steps="1"
       flexible="false"
       use_knot_distance="true"
       apply_no_radius="true"
       apply_with_radius="true"
       only_selected="false"
       hide_knots="false" />
  </defs>
  <sodipodi:namedview
     id="namedview3"
     pagecolor="#505050"
     bordercolor="#ffffff"
     borderopacity="1"
     inkscape:showpageshadow="0"
     inkscape:pageopacity="0"
     inkscape:pagecheckerboard="1"
     inkscape:deskcolor="#505050"
     inkscape:zoom="0.125"
     inkscape:cx="1304"
     inkscape:cy="-24"
     inkscape:window-width="2494"
     inkscape:window-height="1371"
     inkscape:window-x="0"
     inkscape:window-y="0"
     inkscape:window-maximized="1"
     inkscape:current-layer="g3" />
  <g
     transform="scale(9.6) translate(10, 10)"
     id="g3">
    <defs
       id="SvgjsDefs6457" />
    <g
       id="SvgjsG6458"
       featureKey="rootContainer"
       transform="matrix(1.5585413,0,0,1.5585413,-3.4862061,1.8018246)"
       fill="#ffffff">
      <path
         id="path3"
         style="fill:#ffffff;fill-opacity:1;stroke-width:0.00893145;stroke-dasharray:none;paint-order:markers stroke fill"
         d="M 103.58835,-0.22471802 A 100.254,100.254 0 0 0 3.334349,100.02928 a 100.254,100.254 0 0 0 100.254001,100.254 100.254,100.254 0 0 0 100.254,-100.254 100.254,100.254 0 0 0 -100.254,-100.25399802 z m 0,13.36720002 a 86.886803,86.886803 0 0 1 86.8868,86.886798 86.886803,86.886803 0 0 1 -86.8868,86.8868 86.886803,86.886803 0 0 1 -86.886801,-86.8868 86.886803,86.886803 0 0 1 86.886801,-86.886798 z" />
      <path
         style="fill:#3eed20;stroke-width:0.00891144"
         id="path4"
         sodipodi:type="arc"
         sodipodi:cx="115.77415"
         sodipodi:cy="180.34875"
         sodipodi:rx="0.12764272"
         sodipodi:ry="4.7797909"
         sodipodi:start="0"
         sodipodi:end="0.0062825081"
         sodipodi:arc-type="slice"
         d="m 115.90179,180.34875 a 0.12764272,4.7797909 0 0 1 0,0.03 l -0.12764,-0.03 z" />
    </g>
    <g
       id="SvgjsG6459"
       featureKey="monogramFeature-0"
       transform="matrix(3.8831503,0,0,4.098641,68.376237,-2.0224497)"
       fill="#3dd2cc">
      <path
         d="M 46.14,60 H 29.94 L 24.48,50.58 H 13.98 V 60 H 0 V 36.6 l 34.32,0.06 c 3.9,0 7.02,-3.18 7.02,-7.02 0,-3.9 -3.12,-7.02 -7.02,-7.02 H 4.68 v 4.68 h 29.64 c 1.26,0.06 2.22,1.08 2.22,2.34 0,1.26 -0.96,2.28 -2.22,2.34 H 34.26 34.2 0 V 17.94 h 34.32 c 6.48,0 11.7,5.22 11.7,11.7 0,6.42 -5.22,11.7 -11.7,11.7 L 4.68,41.28 V 55.32 H 9.36 V 45.9 h 17.82 c 1.92,3.48 5.16,8.82 5.46,9.42 h 5.4 C 37.56,54.66 34.8,49.74 32.58,45.9 h 5.4 c 1.98,3.42 3.96,6.96 5.58,9.6 z"
         id="path2" />
    </g>
    <g
       id="SvgjsG6460"
       featureKey="nameFeature-0"
       transform="matrix(1.385425329208374,0,0,1.385425329208374,55.99999966968886,182.09282060025302)"
       fill="#ffffff" />
  </g>
</svg>
